<?xml version="1.0" standalone="no"?>
<!DOCTYPE svg PUBLIC "-//W3C//DTD SVG 20010904//EN"
 "http://www.w3.org/TR/2001/REC-SVG-20010904/DTD/svg10.dtd">
<svg version="1.0" xmlns="http://www.w3.org/2000/svg"
 width="300.000000pt" height="196.000000pt" viewBox="0 0 300.000000 196.000000"
 preserveAspectRatio="xMidYMid meet">

<g transform="translate(0.000000,196.000000) scale(0.100000,-0.100000)"
fill="#000000" stroke="none">
<path d="M0 980 l0 -980 1500 0 1500 0 0 980 0 980 -1500 0 -1500 0 0 -980z
m1555 606 c17 -1 -37 -3 -120 -4 -82 0 -142 2 -133 6 16 7 186 5 253 -2z m308
-22 c10 -4 17 -17 17 -34 0 -30 -63 -258 -80 -290 -17 -31 -50 -33 -208 -15
-81 10 -226 26 -322 36 -127 13 -148 17 -75 13 55 -2 181 -14 281 -25 99 -11
209 -19 244 -17 l63 3 19 55 c28 83 62 236 55 253 -4 11 -30 17 -104 22 -138
9 -149 15 -17 10 61 -2 118 -7 127 -11z m31 -146 c-19 -79 -37 -158 -40 -175
-4 -18 -11 -33 -16 -33 -5 0 -7 8 -4 18 3 9 22 82 41 162 38 156 42 170 48
170 3 0 -11 -64 -29 -142z m-824 -42 c0 -2 -8 -10 -17 -17 -16 -13 -17 -12 -4
4 13 16 21 21 21 13z m-40 -49 c0 -2 -10 -12 -22 -23 l-23 -19 19 23 c18 21
26 27 26 19z m855 -117 c3 -5 2 -10 -4 -10 -5 0 -13 5 -16 10 -3 6 -2 10 4 10
5 0 13 -4 16 -10z m-224 -81 c-47 -16 -86 -27 -88 -25 -5 5 137 54 157 54 8 0
-23 -13 -69 -29z m75 -116 c-3 -4 -17 6 -30 20 -15 16 -36 27 -51 27 l-25 0 0
-120 c0 -100 3 -120 15 -120 8 0 15 -4 15 -10 0 -6 -25 -10 -57 -9 -56 0 -57
1 -35 16 21 14 22 23 22 129 l0 114 -29 0 c-20 0 -36 -9 -50 -27 -27 -33 -36
-24 -21 21 l11 35 102 3 102 3 18 -38 c10 -22 16 -41 13 -44z m94 21 l0 -65
22 15 c29 20 82 20 102 0 11 -11 16 -35 16 -83 0 -60 3 -71 23 -84 21 -15 20
-16 -35 -16 -57 -1 -78 12 -38 22 17 4 20 14 20 65 0 42 -5 65 -16 76 -19 19
-17 19 -59 2 -35 -15 -35 -15 -35 -80 0 -52 3 -66 15 -66 8 0 15 -4 15 -10 0
-5 -22 -10 -50 -10 -27 0 -50 5 -50 10 0 6 7 10 15 10 13 0 15 20 15 121 0
117 -1 121 -22 127 -22 5 -21 6 7 18 52 22 55 20 55 -52z m719 -12 c1 -49 -22
-102 -45 -102 -13 0 -12 5 5 26 16 21 21 42 22 93 0 74 17 59 18 -17z m-1655
40 c88 -51 86 -200 -4 -244 -39 -20 -220 -26 -220 -8 0 6 7 10 15 10 13 0 15
20 15 120 0 98 -3 122 -15 126 -8 4 -15 11 -15 17 0 17 187 0 224 -21z m256
-72 c10 -5 23 -23 28 -40 l11 -30 -76 0 -76 0 6 -37 c10 -61 65 -82 116 -46
18 12 23 13 19 2 -2 -8 -20 -22 -40 -32 -33 -16 -40 -17 -71 -3 -50 20 -71 56
-64 109 7 53 43 87 93 87 20 0 44 -4 54 -10z m140 -6 c0 -14 2 -14 22 0 29 20
82 20 102 0 12 -11 16 -35 16 -86 0 -61 2 -70 20 -75 39 -10 19 -23 -35 -23
-54 0 -74 13 -35 23 17 4 20 14 20 65 0 42 -5 65 -16 76 -19 20 -27 20 -64 1
-29 -15 -30 -19 -30 -80 0 -51 3 -65 15 -65 8 0 15 -4 15 -10 0 -5 -22 -10
-50 -10 -27 0 -50 5 -50 10 0 6 7 10 15 10 12 0 15 15 15 75 0 60 -3 75 -15
75 -21 0 -19 18 3 23 35 9 52 7 52 -9z m810 -64 c0 -75 2 -81 23 -91 18 -8 33
-7 60 5 l37 15 0 65 c0 59 -2 66 -20 66 -11 0 -20 5 -20 10 0 6 18 10 40 10
l40 0 0 -90 c0 -73 3 -90 15 -90 28 0 15 -18 -16 -22 -25 -4 -33 -1 -37 14 -4
18 -6 18 -29 2 -32 -20 -89 -22 -108 -3 -8 8 -16 43 -19 84 -2 39 -5 73 -5 78
-1 4 -10 7 -21 7 -11 0 -20 5 -20 10 0 6 18 10 40 10 l40 0 0 -80z m-1399
-240 c24 -13 26 -68 3 -77 -13 -5 -12 -8 5 -25 12 -10 21 -30 21 -43 0 -40
-34 -55 -125 -54 -44 0 -74 3 -67 6 8 3 12 33 12 98 0 65 -4 95 -12 98 -7 3
22 6 65 6 43 1 87 -4 98 -9z m125 -6 c-24 -24 -23 -169 2 -183 13 -8 7 -10
-28 -10 -35 0 -41 2 -27 10 24 14 25 159 1 183 -14 15 -12 16 26 16 38 0 40
-1 26 -16z m112 5 c-15 -8 -18 -25 -18 -94 l0 -85 39 0 c31 0 44 6 60 26 21
27 26 19 15 -23 -6 -22 -12 -23 -88 -23 -44 0 -76 4 -69 8 18 12 21 181 2 193
-10 6 0 9 31 9 35 -1 41 -3 28 -11z m284 -24 c10 -40 5 -41 -30 -5 -33 32 -58
38 -86 17 -28 -21 -9 -45 51 -64 90 -28 109 -89 36 -120 -26 -11 -43 -12 -64
-4 -16 6 -36 8 -43 5 -9 -4 -15 5 -19 28 -2 18 -3 35 -1 37 2 2 17 -10 33 -28
31 -33 65 -40 95 -18 30 22 12 55 -37 68 -64 16 -87 35 -87 69 0 39 23 51 89
47 51 -3 55 -5 63 -32z m116 24 c-13 -7 -18 -23 -18 -57 l0 -47 48 48 c39 39
44 49 32 57 -11 7 -2 10 30 10 l45 0 -30 -19 c-16 -10 -41 -30 -53 -44 l-24
-25 43 -57 c30 -40 48 -55 62 -53 24 4 29 12 68 116 17 45 37 82 44 82 7 0 29
-44 50 -100 20 -54 42 -101 49 -104 6 -2 -6 -5 -27 -5 -24 -1 -36 3 -32 10 4
5 4 21 1 35 -5 20 -12 24 -46 24 -35 0 -42 -4 -51 -27 -7 -20 -6 -28 3 -35 7
-4 -22 -8 -67 -8 -44 0 -74 4 -67 8 9 6 5 19 -19 52 -30 41 -33 42 -45 25 -19
-26 -17 -62 4 -74 13 -8 7 -10 -28 -10 -25 0 -39 3 -32 6 8 3 12 33 12 98 0
65 -4 95 -12 98 -7 3 7 6 32 6 35 0 41 -2 28 -10z m532 -2 c14 -7 33 -29 44
-51 16 -32 17 -44 7 -77 -16 -53 -50 -69 -143 -68 -40 0 -67 3 -60 6 8 3 12
33 12 98 0 65 -4 95 -12 98 -7 3 19 6 57 6 39 0 81 -5 95 -12z m273 -11 c84
-77 5 -220 -103 -187 -47 14 -69 39 -77 85 -12 74 33 125 113 126 30 0 48 -7
67 -24z m241 5 c26 -28 17 -63 -21 -82 l-33 -16 43 -47 c40 -42 42 -46 20 -46
-16 0 -34 15 -60 50 -20 28 -43 50 -50 50 -17 0 -18 -86 0 -93 6 -3 -8 -6 -33
-6 -35 0 -41 2 -27 10 14 8 17 25 17 94 0 69 -3 86 -17 94 -13 8 3 10 63 11
67 0 84 -3 98 -19z"/>
<path d="M740 939 l0 -122 61 6 c71 6 95 23 110 81 24 90 -25 156 -117 156
l-54 0 0 -121z"/>
<path d="M1062 968 c-22 -22 -13 -28 38 -28 48 0 50 1 40 20 -12 23 -59 27
-78 8z"/>
<path d="M580 634 l0 -35 46 3 c50 3 72 22 61 52 -5 12 -19 16 -57 16 l-50 0
0 -36z"/>
<path d="M580 540 l0 -41 51 3 c36 2 55 8 63 21 19 30 -4 52 -63 55 l-51 3 0
-41z"/>
<path d="M1561 619 c-16 -46 -14 -49 19 -49 17 0 30 2 30 5 0 10 -29 75 -34
75 -2 0 -9 -14 -15 -31z"/>
<path d="M1760 585 l0 -85 49 0 c60 0 81 22 81 87 0 56 -28 83 -87 83 l-43 0
0 -85z"/>
<path d="M2029 661 c-32 -25 -42 -66 -28 -115 17 -60 81 -77 118 -30 24 31 28
109 7 136 -21 29 -67 33 -97 9z"/>
<path d="M2270 634 c0 -35 0 -35 41 -32 45 3 67 24 56 52 -5 11 -19 16 -52 16
-45 0 -45 0 -45 -36z"/>
</g>
</svg>
